<svg xmlns="http://www.w3.org/2000/svg" width="155.684" height="47.842"><defs><clipPath id="a"><path data-name="長方形 22853" transform="translate(-20444 -18255.717)" fill="#fff" d="M0 0h155.684v47.842H0z"/></clipPath></defs><g data-name="マスクグループ 1" transform="translate(20444 18255.717)" clip-path="url(#a)"><g data-name="グループ 5414"><path data-name="パス 1121" d="M-20429.481-18245.916v.176a5.232 5.232 0 012.288 6.247l-5.807 21.555h10.382l5.455-20.412 4.663 11.966c2.375 5.279 4.751 8.446 13.285 8.446h5.279l7.478-27.978h-10.294l-5.455 20.588-4.399-11.088c-1.759-5.365-4.751-9.5-13.549-9.5z" fill="#0b308e"/><path data-name="パス 1122" d="M-20316.689-18217.675c-9.326 0-14.165-3.079-12.933-8.534.616-2.551 2.639-4.663 5.367-6.159 2.991-1.584 6.951-2.375 11.789-2.375 9.238 0 13.989 3.079 12.757 8.446-1.231 5.454-7.478 8.622-16.98 8.622zm3.343-13.725c-3.607 0-5.367 2.288-6.159 5.191a6 6 0 000 3.519c.44 1.144 1.408 1.76 3.431 1.76 3.607 0 5.455-2.375 6.159-5.279s.265-5.191-3.43-5.191z" fill="#0b308e"/><path data-name="パス 1123" d="M-20356.633-18230.167h5.191l1.056-4.047h-5.19l1.408-5.367h-9.414l-1.5 5.367h-4.4l-1.051 4.047h4.4l-1.5 5.367c-1.144 4.4.528 6.863 7.566 6.863 1.76 0 3.607 0 5.455-.088l1.056-3.871h-1.76c-1.848 0-2.2-.176-2.639-.616-.616-.7-.176-2.112 0-2.639z" fill="#0b308e"/><path data-name="パス 1124" d="M-20372.117-18241.957h-9.942l-1.32 4.839h10.03z" fill="#e50012"/><path data-name="パス 1125" d="M-20374.141-18234.214h-10.03l-2.551 9.414c-1.144 4.4.528 6.863 7.566 6.863 1.76 0 3.607 0 5.455-.088l1.056-3.871h-1.672c-1.5 0-1.848-.176-2.2-.616-.616-.7-.176-2.112 0-2.639z" fill="#0b308e"/><path data-name="パス 1126" d="M-20335.606-18230.167h5.191l1.056-4.047h-5.191l1.5-5.367h-9.5l-1.5 5.367h-4.4l-1.056 4.047h4.4l-1.5 5.367c-1.144 4.4.528 6.863 7.566 6.863 1.76 0 3.607 0 5.455-.088l1.056-3.871h-1.76c-1.848 0-2.288-.176-2.639-.616-.616-.7-.176-2.112 0-2.639z" fill="#0b308e"/></g></g></svg>