<svg xmlns="http://www.w3.org/2000/svg" width="100" height="100"><g data-name="グループ 11277" transform="translate(-1091 -3726.793)"><circle data-name="楕円形 87" cx="50" cy="50" r="50" transform="translate(1091 3726.793)" fill="#fff"/><g data-name="グループ 11260"><g data-name="グループ 11225"><path data-name="パス 3646" d="M1147.429 3801.785h-23.684a2.185 2.185 0 01-2.183-2.184v-45.617a2.185 2.185 0 012.183-2.183h33.2a2.185 2.185 0 012.183 2.183v35.59a1.5 1.5 0 01-.414 1.034l-10.2 10.711a1.5 1.5 0 01-1.085.466zm-22.867-3h22.224l9.342-9.811v-34.173h-31.566z"/><path data-name="線 966" d="M1151.696 3764.232h-23.044a1.5 1.5 0 01-1.5-1.5 1.5 1.5 0 011.5-1.5h23.044a1.5 1.5 0 011.5 1.5 1.5 1.5 0 01-1.5 1.5z"/><path data-name="線 967" d="M1151.867 3773.364h-23.044a1.5 1.5 0 01-1.5-1.5 1.5 1.5 0 011.5-1.5h23.044a1.5 1.5 0 011.5 1.5 1.5 1.5 0 01-1.5 1.5z"/><path data-name="線 968" d="M1152.123 3782.582h-23.044a1.5 1.5 0 01-1.5-1.5 1.5 1.5 0 011.5-1.5h23.044a1.5 1.5 0 011.5 1.5 1.5 1.5 0 01-1.5 1.5z"/><path data-name="線 969" d="M1141.626 3791.714h-12.376a1.5 1.5 0 01-1.5-1.5 1.5 1.5 0 011.5-1.5h12.376a1.5 1.5 0 011.5 1.5 1.5 1.5 0 01-1.5 1.5z"/><path data-name="パス 3647" d="M1147.002 3801.786a1.5 1.5 0 01-1.5-1.5v-10.242a1.5 1.5 0 011.5-1.5h10.242a1.5 1.5 0 010 3h-8.742v8.742a1.5 1.5 0 01-1.5 1.5z"/></g></g></g></svg>