<svg xmlns="http://www.w3.org/2000/svg" width="100" height="100"><g data-name="グループ 11276" transform="translate(-490 -3726.793)"><circle data-name="楕円形 86" cx="50" cy="50" r="50" transform="translate(490 3726.793)" fill="#fff"/><g data-name="グループ 11257"><path data-name="パス 3648" d="M560.483 3792.845h-40.967a1.5 1.5 0 01-1.5-1.5v-28.165a1.5 1.5 0 011.5-1.5h40.285a2.185 2.185 0 012.183 2.183v27.482a1.5 1.5 0 01-1.501 1.5zm-39.467-3h37.967v-25.165h-37.967z"/><path data-name="パス 3649" d="M539.999 3784.31a1.5 1.5 0 01-1.038-.417l-20.313-19.459a1.5 1.5 0 012.075-2.166l19.274 18.463 19.189-18.461a1.5 1.5 0 112.08 2.162l-20.227 19.459a1.5 1.5 0 01-1.04.419z"/><path data-name="線 970" d="M519.516 3792.845a1.5 1.5 0 01-1.089-.469 1.5 1.5 0 01.057-2.121l14.638-13.868a1.5 1.5 0 012.121.057 1.5 1.5 0 01-.057 2.121l-14.638 13.869a1.5 1.5 0 01-1.032.411z"/><path data-name="線 971" d="M560.184 3792.845a1.5 1.5 0 01-1.031-.411l-14.638-13.869a1.5 1.5 0 01-.057-2.121 1.5 1.5 0 012.121-.057l14.637 13.869a1.5 1.5 0 01-1.032 2.589z"/></g></g></svg>