<svg xmlns="http://www.w3.org/2000/svg" width="20.653" height="26.936"><path data-name="パス 13" d="M1.846 1.142C-.005 2.342-.368 6.094.33 9.152a27.622 27.622 0 003.652 8.584 28.686 28.686 0 006.348 6.835c2.507 1.885 6.081 3.083 7.932 1.883a9.373 9.373 0 002.39-2.563l-.994-1.533-2.734-4.216c-.2-.313-1.477-.027-2.125.34a6.163 6.163 0 00-1.677 1.819c-.6.346-1.1 0-2.148-.481-1.288-.592-2.735-2.433-3.888-4.1-1.052-1.732-2.143-3.8-2.159-5.222-.013-1.153-.123-1.752.437-2.157a6.164 6.164 0 002.348-.788c.6-.441 1.38-1.488 1.177-1.8L6.155 1.538 5.161.001a9.374 9.374 0 00-3.315 1.141z" fill="#fff"/></svg>