<svg xmlns="http://www.w3.org/2000/svg" width="13.756" height="17.94"><path data-name="パス 13" d="M1.23.76c-1.233.8-1.475 3.3-1.009 5.335a18.4 18.4 0 002.432 5.717 19.106 19.106 0 004.228 4.553c1.67 1.256 4.05 2.054 5.283 1.254a6.243 6.243 0 001.592-1.707l-.662-1.021-1.821-2.808c-.135-.209-.984-.018-1.415.226a4.1 4.1 0 00-1.117 1.214c-.4.23-.733 0-1.431-.32a8.5 8.5 0 01-2.589-2.731 8.5 8.5 0 01-1.438-3.478c-.009-.768-.082-1.167.291-1.437a4.105 4.105 0 001.564-.525c.4-.294.919-.991.784-1.2L4.1 1.023 3.437 0A6.243 6.243 0 001.23.76z"/></svg>