<svg xmlns="http://www.w3.org/2000/svg" xmlns:xlink="http://www.w3.org/1999/xlink" width="155.684" height="47.842" viewBox="0 0 155.684 47.842">
  <defs>
    <clipPath id="clip-path">
      <rect id="長方形_22853" data-name="長方形 22853" width="155.684" height="47.842" transform="translate(-20444 -18255.717)" fill="#fff"/>
    </clipPath>
  </defs>
  <g id="マスクグループ_1" data-name="マスクグループ 1" transform="translate(20444 18255.717)" clip-path="url(#clip-path)">
    <g id="グループ_5414" data-name="グループ 5414">
      <path id="パス_1121" data-name="パス 1121" d="M3.519,0V.176A5.232,5.232,0,0,1,5.807,6.423L0,27.978H10.382L15.837,7.566,20.5,19.532c2.375,5.279,4.751,8.446,13.285,8.446h5.279L46.542,0H36.248L30.793,20.588,26.394,9.5C24.635,4.135,21.643,0,12.845,0Z" transform="translate(-20433 -18245.916)" fill="#0b308e"/>
      <path id="パス_1122" data-name="パス 1122" d="M130.407,29.768c-9.326,0-14.165-3.079-12.933-8.534.616-2.551,2.639-4.663,5.367-6.159,2.991-1.584,6.951-2.375,11.789-2.375,9.238,0,13.989,3.079,12.757,8.446C146.156,26.6,139.909,29.768,130.407,29.768Zm3.343-13.725c-3.607,0-5.367,2.288-6.159,5.191a6,6,0,0,0,0,3.519c.44,1.144,1.408,1.76,3.431,1.76,3.607,0,5.455-2.375,6.159-5.279S137.446,16.043,133.751,16.043Z" transform="translate(-20447.096 -18247.443)" fill="#0b308e"/>
      <path id="パス_1123" data-name="パス 1123" d="M84.9,16.614h5.191l1.056-4.047H85.957L87.365,7.2H77.951l-1.5,5.367h-4.4L71,16.614h4.4l-1.5,5.367c-1.144,4.4.528,6.863,7.566,6.863,1.76,0,3.607,0,5.455-.088l1.056-3.871h-1.76c-1.848,0-2.2-.176-2.639-.616-.616-.7-.176-2.112,0-2.639Z" transform="translate(-20441.533 -18246.781)" fill="#0b308e"/>
      <path id="パス_1124" data-name="パス 1124" d="M67.662,4.5H57.72L56.4,9.339H66.43Z" transform="translate(-20439.779 -18246.457)" fill="#e50012"/>
      <path id="パス_1125" data-name="パス 1125" d="M65.136,13.3H55.106l-2.551,9.414c-1.144,4.4.528,6.863,7.566,6.863,1.76,0,3.607,0,5.455-.088l1.056-3.871H64.96c-1.5,0-1.848-.176-2.2-.616-.616-.7-.176-2.112,0-2.639Z" transform="translate(-20439.277 -18247.514)" fill="#0b308e"/>
      <path id="パス_1126" data-name="パス 1126" d="M108.8,16.614h5.191l1.056-4.047h-5.191l1.5-5.367h-9.5l-1.5,5.367h-4.4L94.9,16.614h4.4l-1.5,5.367c-1.144,4.4.528,6.863,7.566,6.863,1.76,0,3.607,0,5.455-.088l1.056-3.871h-1.76c-1.848,0-2.288-.176-2.639-.616-.616-.7-.176-2.112,0-2.639Z" transform="translate(-20444.406 -18246.781)" fill="#0b308e"/>
    </g>
  </g>
</svg>
