<svg id="検索アイコン1" xmlns="http://www.w3.org/2000/svg" width="22.509" height="22.509" viewBox="0 0 22.509 22.509">
  <path id="パス_1134" data-name="パス 1134" d="M365.894,363.248l-3.5-3.5L359.75,362.4l3.5,3.5a1.872,1.872,0,1,0,2.647-2.647Z" transform="translate(-343.935 -343.935)" fill="#171c8f"/>
  <path id="パス_1135" data-name="パス 1135" d="M17.558,15.928l-1.82-1.82s0-.008.005-.011a8.8,8.8,0,0,0,1.808-5.321A8.776,8.776,0,0,0,8.765,0,8.776,8.776,0,0,0,0,8.777a8.775,8.775,0,0,0,8.777,8.775h.008A8.8,8.8,0,0,0,14.1,15.744l.01-.005,1.82,1.82Zm-4.6-2.973a5.91,5.91,0,1,1-4.18-10.09h0a5.91,5.91,0,0,1,4.178,10.09Z" transform="translate(0 0)" fill="#171c8f"/>
</svg>
