<svg xmlns="http://www.w3.org/2000/svg" width="100" height="100" viewBox="0 0 100 100">
  <g id="グループ_11276" data-name="グループ 11276" transform="translate(-490 -3726.793)">
    <circle id="楕円形_86" data-name="楕円形 86" cx="50" cy="50" r="50" transform="translate(490 3726.793)" fill="#fff"/>
    <g id="グループ_11257" data-name="グループ 11257" transform="translate(519.516 3763.18)">
      <path id="パス_3648" data-name="パス 3648" d="M198.767,49.465H157.8a1.5,1.5,0,0,1-1.5-1.5V19.8a1.5,1.5,0,0,1,1.5-1.5h40.285a2.185,2.185,0,0,1,2.183,2.183V47.965A1.5,1.5,0,0,1,198.767,49.465Zm-39.467-3h37.967V21.3H159.3Z" transform="translate(-157.8 -19.8)"/>
      <path id="パス_3649" data-name="パス 3649" d="M178.513,41.159a1.5,1.5,0,0,1-1.038-.417L157.162,21.283a1.5,1.5,0,0,1,2.075-2.166L178.511,37.58,197.7,19.119a1.5,1.5,0,1,1,2.08,2.162L179.553,40.74A1.5,1.5,0,0,1,178.513,41.159Z" transform="translate(-158.03 -20.029)"/>
      <path id="線_970" data-name="線 970" d="M0,15.369A1.5,1.5,0,0,1-1.089,14.9a1.5,1.5,0,0,1,.057-2.121L13.606-1.089a1.5,1.5,0,0,1,2.121.057,1.5,1.5,0,0,1-.057,2.121L1.032,14.958A1.5,1.5,0,0,1,0,15.369Z" transform="translate(0 14.296)"/>
      <path id="線_971" data-name="線 971" d="M14.637,15.369a1.5,1.5,0,0,1-1.031-.411L-1.032,1.089a1.5,1.5,0,0,1-.057-2.121,1.5,1.5,0,0,1,2.121-.057L15.669,12.78a1.5,1.5,0,0,1-1.032,2.589Z" transform="translate(26.031 14.296)"/>
    </g>
  </g>
</svg>
