<svg xmlns="http://www.w3.org/2000/svg" width="100" height="100" viewBox="0 0 100 100">
  <g id="グループ_11277" data-name="グループ 11277" transform="translate(-1091 -3726.793)">
    <circle id="楕円形_87" data-name="楕円形 87" cx="50" cy="50" r="50" transform="translate(1091 3726.793)" fill="#fff"/>
    <g id="グループ_11260" data-name="グループ 11260" transform="translate(1123.061 3753.301)">
      <g id="グループ_11225" data-name="グループ 11225" transform="translate(0.001 0)">
        <path id="パス_3646" data-name="パス 3646" d="M27.067,51.184H3.383A2.185,2.185,0,0,1,1.2,49V3.383A2.185,2.185,0,0,1,3.383,1.2h33.2a2.185,2.185,0,0,1,2.183,2.183v35.59a1.5,1.5,0,0,1-.414,1.034l-10.2,10.711A1.5,1.5,0,0,1,27.067,51.184Zm-22.867-3H26.424l9.342-9.811V4.2H4.2Z" transform="translate(-2.7 -2.7)"/>
        <path id="線_966" data-name="線 966" d="M23.044,1.5H0A1.5,1.5,0,0,1-1.5,0,1.5,1.5,0,0,1,0-1.5H23.044a1.5,1.5,0,0,1,1.5,1.5A1.5,1.5,0,0,1,23.044,1.5Z" transform="translate(5.59 9.431)"/>
        <path id="線_967" data-name="線 967" d="M23.044,1.5H0A1.5,1.5,0,0,1-1.5,0,1.5,1.5,0,0,1,0-1.5H23.044a1.5,1.5,0,0,1,1.5,1.5A1.5,1.5,0,0,1,23.044,1.5Z" transform="translate(5.761 18.563)"/>
        <path id="線_968" data-name="線 968" d="M23.044,1.5H0A1.5,1.5,0,0,1-1.5,0,1.5,1.5,0,0,1,0-1.5H23.044a1.5,1.5,0,0,1,1.5,1.5A1.5,1.5,0,0,1,23.044,1.5Z" transform="translate(6.017 27.781)"/>
        <path id="線_969" data-name="線 969" d="M12.376,1.5H0A1.5,1.5,0,0,1-1.5,0,1.5,1.5,0,0,1,0-1.5H12.376a1.5,1.5,0,0,1,1.5,1.5A1.5,1.5,0,0,1,12.376,1.5Z" transform="translate(6.188 36.913)"/>
        <path id="パス_3647" data-name="パス 3647" d="M58.8,100.542a1.5,1.5,0,0,1-1.5-1.5V88.8a1.5,1.5,0,0,1,1.5-1.5H69.042a1.5,1.5,0,0,1,0,3H60.3v8.742A1.5,1.5,0,0,1,58.8,100.542Z" transform="translate(-34.86 -52.057)"/>
      </g>
    </g>
  </g>
</svg>
