<svg xmlns="http://www.w3.org/2000/svg" width="20.653" height="26.936" viewBox="0 0 20.653 26.936">
  <path id="パス_13" data-name="パス 13" d="M61.558,1.141c-1.851,1.2-2.214,4.952-1.516,8.01a27.622,27.622,0,0,0,3.652,8.584,28.686,28.686,0,0,0,6.348,6.835c2.507,1.885,6.081,3.083,7.932,1.883a9.373,9.373,0,0,0,2.39-2.563l-.994-1.533-2.734-4.216c-.2-.313-1.477-.027-2.125.34A6.163,6.163,0,0,0,72.834,20.3c-.6.346-1.1,0-2.148-.481-1.288-.592-2.735-2.433-3.888-4.1-1.052-1.732-2.143-3.8-2.159-5.222-.013-1.153-.123-1.752.437-2.157a6.164,6.164,0,0,0,2.348-.788c.6-.441,1.38-1.488,1.177-1.8L65.867,1.537,64.873,0A9.374,9.374,0,0,0,61.558,1.141Z" transform="translate(-59.712 0.001)" fill="#fff"/>
</svg>
