<svg xmlns="http://www.w3.org/2000/svg" width="64" height="64"><defs><clipPath id="a"><path data-name="長方形 23004" transform="translate(178.612 4550.612)" fill="#fff" stroke="#707070" opacity=".488" d="M0 0h64v64H0z"/></clipPath><clipPath id="b"><path data-name="長方形 23003" fill="#fff" stroke="#707070" d="M0 0h56.773v56.773H0z"/></clipPath></defs><g data-name="マスクグループ 65" transform="translate(-178.612 -4550.612)" clip-path="url(#a)"><g data-name="マスクグループ 64" transform="translate(179 4553.974)" clip-path="url(#b)"><g data-name="グループ 11190"><g data-name="グループ 11189"><g data-name="グループ 11187"><g data-name="グループ 11186"><g data-name="グループ 11185"><path data-name="パス 3270" d="M48.741 48.193h-2V20.871h-7.645v-2h8.645a1 1 0 011 1z" fill="#171c8f"/><g data-name="グループ 11182" fill="#171c8f"><path data-name="線 946" d="M42.837 26.548h-1.935a1 1 0 01-1-1 1 1 0 011-1h1.935a1 1 0 011 1 1 1 0 01-1 1z"/><path data-name="線 947" d="M42.837 32.225h-1.935a1 1 0 01-1-1 1 1 0 011-1h1.935a1 1 0 011 1 1 1 0 01-1 1z"/><path data-name="線 948" d="M42.837 37.903h-1.935a1 1 0 01-1-1 1 1 0 011-1h1.935a1 1 0 011 1 1 1 0 01-1 1z"/><path data-name="線 949" d="M42.837 43.515h-1.935a1 1 0 01-1-1 1 1 0 011-1h1.935a1 1 0 011 1 1 1 0 01-1 1z"/></g><g data-name="グループ 11183"><path data-name="線 950" d="M40.902 26.548h-1.806v-2h1.806z"/><path data-name="線 951" d="M40.902 32.225h-1.806v-2h1.806z"/><path data-name="線 952" d="M40.902 37.903h-1.806v-2h1.806z"/><path data-name="線 953" d="M40.902 43.515h-1.806v-2h1.806z"/></g><path data-name="線 954" d="M36.515 51.193a3 3 0 01-3-3V14.258a3 3 0 013-3 3 3 0 013 3v33.935a3 3 0 01-3 3z" fill="#fff"/><g data-name="グループ 11184" fill="#171c8f"><path data-name="線 955" d="M30.451 20.871H16.064a1 1 0 01-1-1 1 1 0 011-1h14.387a1 1 0 011 1 1 1 0 01-1 1z"/><path data-name="線 956" d="M30.451 26.548H16.064a1 1 0 01-1-1 1 1 0 011-1h14.387a1 1 0 011 1 1 1 0 01-1 1z"/><path data-name="線 957" d="M30.451 32.226H16.064a1 1 0 01-1-1 1 1 0 011-1h14.387a1 1 0 011 1 1 1 0 01-1 1z"/><path data-name="線 958" d="M30.451 37.903H16.064a1 1 0 01-1-1 1 1 0 011-1h14.387a1 1 0 011 1 1 1 0 01-1 1z"/></g><path data-name="パス 3271" d="M20.483 48.193h-2v-5.677a1 1 0 011-1h7.548v2h-6.548z" fill="#171c8f"/></g><path data-name="線 959" d="M52.257 51.967H5.419a1 1 0 01-1-1 1 1 0 011-1h46.838a1 1 0 011 1 1 1 0 01-1 1z" fill="#171c8f"/></g></g><g data-name="グループ 11188"><path data-name="パス 3272" d="M37.516 48.19h-2V15.258h-5.064a1 1 0 01-1-1V10.29H17.064v3.968a1 1 0 01-1 1H11V48.19H9V14.258a1 1 0 011-1h5.064V9.29a1 1 0 011-1h14.387a1 1 0 011 1v3.968h5.064a1 1 0 011 1z" fill="#171c8f"/></g></g></g></g></g></svg>